<?xml version="1.0" encoding="UTF-8"?>
<svg id="Layer_1" xmlns="http://www.w3.org/2000/svg" version="1.1" viewBox="0 0 425.1 144">
  <!-- Generator: Adobe Illustrator 29.6.1, SVG Export Plug-In . SVG Version: 2.1.1 Build 9)  -->
  <g>
    <polygon points="145.1 43.9 130.6 83 116 43.9 104.5 43.9 123.3 94.6 137.9 94.6 156.7 43.9 145.1 43.9"/>
    <polygon points="53 94.6 93 94.6 97.3 82.9 97.3 43.9 74.5 43.9 74.5 54.8 85.8 54.8 85.8 82.9 60.2 82.9 60.2 43.9 48.7 43.9 48.7 82.9 53 94.6"/>
    <polygon points="200.9 82.9 175.4 82.9 175.4 43.9 163.8 43.9 163.8 82.9 168.1 94.6 208.2 94.6 212.5 82.9 212.5 43.9 200.9 43.9 200.9 82.9"/>
    <path d="M211.2,91.6h2.2v.3h-.9v2.6h-.4v-2.6h-.9v-.3ZM214.2,92.4v2.1h-.4v-2.9h.4l.9,1.9.9-1.9h.3v2.9h-.4v-2.1l-.7,1.6h-.3l-.7-1.6Z"/>
  </g>
  <g>
    <path d="M240.2,69.9h-3.5l-1-3.2h-4.9l-1,3.2h-3.5l5.2-15.9h3.5l5.2,15.9ZM231.8,63.7h2.9l-1.4-5.3-1.4,5.3Z"/>
    <path d="M254.9,64.5v2.7c0,1.5-1.2,2.6-2.6,2.6h-5.5c-1.5,0-2.6-1.2-2.6-2.6v-10.7c0-1.5,1.2-2.6,2.6-2.6h5.5c1.5,0,2.6,1.2,2.6,2.6v2.4l-3.4.6v-2.2c0-.1,0-.2-.2-.2h-3.4c-.1,0-.2,0-.2.2v9.1c0,.1,0,.2.2.2h3.4c.1,0,.2,0,.2-.2v-2.6l3.4.6Z"/>
    <path d="M270.4,64.5v2.7c0,1.5-1.2,2.6-2.6,2.6h-5.5c-1.5,0-2.6-1.2-2.6-2.6v-10.7c0-1.5,1.2-2.6,2.6-2.6h5.5c1.5,0,2.6,1.2,2.6,2.6v2.4l-3.4.6v-2.2c0-.1,0-.2-.2-.2h-3.4c-.1,0-.2,0-.2.2v9.1c0,.1,0,.2.2.2h3.4c.1,0,.2,0,.2-.2v-2.6l3.4.6Z"/>
    <path d="M283.7,69.9h-5.9c-1.5,0-2.6-1.2-2.6-2.6v-10.7c0-1.5,1.2-2.6,2.6-2.6h5.9c1.5,0,2.6,1.2,2.6,2.6v10.7c0,1.5-1.2,2.6-2.6,2.6ZM282.6,57.1h-3.7c-.1,0-.2,0-.2.2v9.1c0,.1,0,.2.2.2h3.7c.1,0,.2,0,.2-.2v-9.1c0-.1,0-.2-.2-.2Z"/>
    <path d="M302.3,54v13.3c0,1.5-1.2,2.6-2.6,2.6h-5.7c-1.5,0-2.6-1.2-2.6-2.6v-13.3h3.5v12.5c0,.1,0,.2.2.2h3.5c.1,0,.2,0,.2-.2v-12.5h3.5Z"/>
    <path d="M319.4,69.9h-3.3l-5.3-9.3v9.3h-3.3v-15.9h3.3l5.3,9.3v-9.3h3.3v15.9Z"/>
    <path d="M323.6,54h11.7v3.2h-4.1v12.8h-3.5v-12.8h-4.1v-3.2Z"/>
    <path d="M342.9,69.9h-3.5v-15.9h3.5v15.9Z"/>
    <path d="M360.2,69.9h-3.3l-5.3-9.3v9.3h-3.3v-15.9h3.3l5.3,9.3v-9.3h3.3v15.9Z"/>
    <path d="M370.4,61.2h5.8v6c0,1.5-1.2,2.6-2.6,2.6h-5.6c-1.5,0-2.6-1.2-2.6-2.6v-10.7c0-1.5,1.2-2.6,2.6-2.6h5.6c1.5,0,2.6,1.2,2.6,2.6v1.9l-3.4.6v-1.7c0-.1,0-.2-.2-.2h-3.5c-.1,0-.2,0-.2.2v9.1c0,.1,0,.2.2.2h3.5c.1,0,.2,0,.2-.2v-2.3h-2.4v-3Z"/>
    <path d="M238,91.9c0,1.5-1.2,2.6-2.6,2.6h-5.4c-1.5,0-2.6-1.2-2.6-2.6v-1.8l3.4-.6v1.6c0,.1,0,.2.2.2h3.3c.1,0,.2,0,.2-.2v-2.2c0-.2-.1-.3-.3-.3-.4-.1-1.7-.5-4.6-1.3-1.4-.4-2.2-1-2.2-2.5v-3.6c0-1.5,1.2-2.6,2.6-2.6h5.3c1.5,0,2.6,1.2,2.6,2.6v1.7l-3.4.6v-1.5c0-.1,0-.2-.2-.2h-3.2c-.1,0-.2,0-.2.2v2.1c0,.2.1.3.3.3.2,0,1.6.5,4.8,1.3,1.4.4,2.2,1,2.2,2.5v3.7Z"/>
    <path d="M251.3,94.5h-5.9c-1.5,0-2.6-1.2-2.6-2.6v-10.7c0-1.5,1.2-2.6,2.6-2.6h5.9c1.5,0,2.6,1.2,2.6,2.6v10.7c0,1.5-1.2,2.6-2.6,2.6ZM250.2,81.8h-3.7c-.1,0-.2,0-.2.2v9.1c0,.1,0,.2.2.2h3.7c.1,0,.2,0,.2-.2v-9.1c0-.1,0-.2-.2-.2Z"/>
    <path d="M269.7,89.2v2.8c0,1.5-1.2,2.6-2.6,2.6h-5.5c-1.5,0-2.6-1.2-2.6-2.6v-10.7c0-1.5,1.2-2.6,2.6-2.6h5.5c1.5,0,2.6,1.2,2.6,2.6v2.4l-3.4.6v-2.2c0-.1,0-.2-.2-.2h-3.4c-.1,0-.2,0-.2.2v9.1c0,.1,0,.2.2.2h3.4c.1,0,.2,0,.2-.2v-2.6l3.4.6Z"/>
    <path d="M278.1,94.5h-3.5v-15.9h3.5v15.9Z"/>
    <path d="M283.3,78.6h9.9v3.2h-6.4v3h5.9v3.2h-5.9v3.4h6.5v3.2h-9.9v-15.9Z"/>
    <path d="M296.9,78.6h11.7v3.2h-4.1v12.8h-3.5v-12.8h-4.1v-3.2Z"/>
    <path d="M317.5,85.3l2.7-6.7h3.7l-4.6,10.6v5.4h-3.5v-5.4l-4.6-10.6h3.7l2.7,6.7Z"/>
  </g>
</svg>