<?xml version="1.0" encoding="UTF-8"?>
<svg id="Layer_1" xmlns="http://www.w3.org/2000/svg" version="1.1" viewBox="0 0 432 216">
  <!-- Generator: Adobe Illustrator 29.6.1, SVG Export Plug-In . SVG Version: 2.1.1 Build 9)  -->
  <g>
    <path d="M153.1,134.5h-3.6l-1-3.2h-5l-1,3.2h-3.6l5.3-16.3h3.6l5.4,16.3ZM144.4,128.1h2.9l-1.5-5.4-1.5,5.4Z"/>
    <path d="M167.9,129v2.8c0,1.5-1.2,2.7-2.7,2.7h-5.6c-1.5,0-2.7-1.2-2.7-2.7v-10.9c0-1.5,1.2-2.7,2.7-2.7h5.6c1.5,0,2.7,1.2,2.7,2.7v2.4l-3.5.6v-2.3c0-.1,0-.2-.2-.2h-3.5c-.1,0-.2,0-.2.2v9.4c0,.1,0,.2.2.2h3.5c.1,0,.2,0,.2-.2v-2.6l3.5.6Z"/>
    <path d="M183.8,129v2.8c0,1.5-1.2,2.7-2.7,2.7h-5.6c-1.5,0-2.7-1.2-2.7-2.7v-10.9c0-1.5,1.2-2.7,2.7-2.7h5.6c1.5,0,2.7,1.2,2.7,2.7v2.4l-3.5.6v-2.3c0-.1,0-.2-.2-.2h-3.5c-.1,0-.2,0-.2.2v9.4c0,.1,0,.2.2.2h3.5c.1,0,.2,0,.2-.2v-2.6l3.5.6Z"/>
    <path d="M197.4,134.5h-6c-1.5,0-2.7-1.2-2.7-2.7v-10.9c0-1.5,1.2-2.7,2.7-2.7h6c1.5,0,2.7,1.2,2.7,2.7v10.9c0,1.5-1.2,2.7-2.7,2.7ZM196.3,121.4h-3.8c-.1,0-.2,0-.2.2v9.4c0,.1,0,.2.2.2h3.8c.1,0,.2,0,.2-.2v-9.4c0-.1,0-.2-.2-.2Z"/>
    <path d="M216.4,118.2v13.6c0,1.5-1.2,2.7-2.7,2.7h-5.8c-1.5,0-2.7-1.2-2.7-2.7v-13.6h3.6v12.8c0,.1,0,.2.2.2h3.6c.1,0,.2,0,.2-.2v-12.8h3.6Z"/>
    <path d="M234,134.5h-3.4l-5.4-9.5v9.5h-3.4v-16.3h3.4l5.4,9.6v-9.6h3.4v16.3Z"/>
    <path d="M238.3,118.2h12v3.2h-4.2v13.1h-3.6v-13.1h-4.2v-3.2Z"/>
    <path d="M258.1,134.5h-3.6v-16.3h3.6v16.3Z"/>
    <path d="M275.8,134.5h-3.4l-5.4-9.5v9.5h-3.4v-16.3h3.4l5.4,9.6v-9.6h3.4v16.3Z"/>
    <path d="M286.2,125.6h6v6.2c0,1.5-1.2,2.7-2.7,2.7h-5.8c-1.5,0-2.7-1.2-2.7-2.7v-10.9c0-1.5,1.2-2.7,2.7-2.7h5.7c1.5,0,2.7,1.2,2.7,2.7v2l-3.5.6v-1.8c0-.1,0-.2-.2-.2h-3.6c-.1,0-.2,0-.2.2v9.4c0,.1,0,.2.2.2h3.6c.1,0,.2,0,.2-.2v-2.3h-2.5v-3.1Z"/>
    <path d="M177.9,156.3c0,1.5-1.2,2.7-2.7,2.7h-5.5c-1.5,0-2.7-1.2-2.7-2.7v-1.8l3.5-.6v1.6c0,.1,0,.2.2.2h3.4c.1,0,.2,0,.2-.2v-2.3c0-.2-.1-.3-.3-.3-.4-.1-1.7-.5-4.8-1.3-1.4-.4-2.3-1.1-2.3-2.5v-3.6c0-1.5,1.2-2.7,2.7-2.7h5.4c1.5,0,2.7,1.2,2.7,2.7v1.7l-3.5.6v-1.5c0-.1,0-.2-.2-.2h-3.3c-.1,0-.2,0-.2.2v2.1c0,.2.1.3.3.3.2,0,1.6.5,4.9,1.4,1.4.4,2.2,1.1,2.2,2.5v3.8Z"/>
    <path d="M191.5,158.9h-6c-1.5,0-2.7-1.2-2.7-2.7v-10.9c0-1.5,1.2-2.7,2.7-2.7h6c1.5,0,2.7,1.2,2.7,2.7v10.9c0,1.5-1.2,2.7-2.7,2.7ZM190.4,145.9h-3.8c-.1,0-.2,0-.2.2v9.4c0,.1,0,.2.2.2h3.8c.1,0,.2,0,.2-.2v-9.4c0-.1,0-.2-.2-.2Z"/>
    <path d="M210.3,153.4v2.8c0,1.5-1.2,2.7-2.7,2.7h-5.6c-1.5,0-2.7-1.2-2.7-2.7v-10.9c0-1.5,1.2-2.7,2.7-2.7h5.6c1.5,0,2.7,1.2,2.7,2.7v2.4l-3.5.6v-2.3c0-.1,0-.2-.2-.2h-3.5c-.1,0-.2,0-.2.2v9.4c0,.1,0,.2.2.2h3.5c.1,0,.2,0,.2-.2v-2.6l3.5.6Z"/>
    <path d="M218.9,158.9h-3.6v-16.3h3.6v16.3Z"/>
    <path d="M224.3,142.6h10.1v3.2h-6.6v3.1h6.1v3.2h-6.1v3.5h6.6v3.2h-10.2v-16.3Z"/>
    <path d="M238.3,142.6h12v3.2h-4.2v13.1h-3.6v-13.1h-4.2v-3.2Z"/>
    <path d="M259.9,149.5l2.7-6.8h3.7l-4.7,10.8v5.5h-3.6v-5.5l-4.7-10.8h3.7l2.7,6.8Z"/>
  </g>
  <g>
    <path d="M300.8,99.1v2.7h-.4v-3.6h.4l1.1,2.4,1.1-2.4h.4v3.6h-.4v-2.7l-.9,1.9h-.4l-.9-1.9ZM297.1,98.2h2.7v.4h-1.1v3.2h-.5v-3.2h-1.1v-.4Z"/>
    <polygon points="230.4 51.4 215.9 90.3 201.3 51.4 189.8 51.4 208.6 101.8 223.2 101.8 242 51.4 230.4 51.4"/>
    <polygon points="138.4 101.8 178.4 101.8 182.7 90.2 182.7 51.4 159.9 51.4 159.9 62.2 171.2 62.2 171.2 90.2 145.7 90.2 145.7 51.4 134.1 51.4 134.1 90.2 138.4 101.8"/>
    <polygon points="286.1 90.2 260.6 90.2 260.6 51.4 249.1 51.4 249.1 90.2 253.4 101.8 293.3 101.8 297.7 90.2 297.7 51.4 286.1 51.4 286.1 90.2"/>
  </g>
</svg>